HIERARCHY
ROOT Hips
{
	OFFSET	0.00	0.00	0.00
	CHANNELS 6 Xposition Yposition Zposition Zrotation Xrotation Yrotation
	JOINT LeftUpLeg
	{
		OFFSET	 0.126116	-0.014019	-0.065224
		CHANNELS 3 Zrotation Xrotation Yrotation
		JOINT LeftLeg
		{
			OFFSET	 0.000000	 0.000000	 0.569914
			CHANNELS 3 Zrotation Xrotation Yrotation
			JOINT LeftFoot
			{
				OFFSET	 0.000000	 0.000000	 0.544423
				CHANNELS 3 Zrotation Xrotation Yrotation
				JOINT LeftToeBase
				{
					OFFSET	 0.000000	 0.000000	 0.207117
					CHANNELS 3 Zrotation Xrotation Yrotation
					End Site
					{
						OFFSET	 0.000000	 0.000000	 0.207117
					}
				}
			}
		}
	}
	JOINT RightUpLeg
	{
		OFFSET	-0.124023	-0.008373	-0.065224
		CHANNELS 3 Zrotation Xrotation Yrotation
		JOINT RightLeg
		{
			OFFSET	 0.000000	 0.000000	 0.570047
			CHANNELS 3 Zrotation Xrotation Yrotation
			JOINT RightFoot
			{
				OFFSET	 0.000000	 0.000000	 0.544354
				CHANNELS 3 Zrotation Xrotation Yrotation
				JOINT RightToeBase
				{
					OFFSET	 0.000000	 0.000000	 0.207540
					CHANNELS 3 Zrotation Xrotation Yrotation
					End Site
					{
						OFFSET	 0.000000	 0.000000	 0.207540
					}
				}
			}
		}
	}
	JOINT Spine
	{
		OFFSET	 0.000184	-0.007763	 0.117403
		CHANNELS 3 Zrotation Xrotation Yrotation
		JOINT Spine1
		{
			OFFSET	 0.000000	 0.000000	 0.137269
			CHANNELS 3 Zrotation Xrotation Yrotation
			JOINT Spine2
			{
				OFFSET	 0.000000	 0.000000	 0.156879
				CHANNELS 3 Zrotation Xrotation Yrotation
				JOINT LeftShoulder
				{
					OFFSET	 0.080501	-0.002496	 0.160144
					CHANNELS 3 Zrotation Xrotation Yrotation
					JOINT LeftArm
					{
						OFFSET	 0.000000	 0.000000	 0.164363
						CHANNELS 3 Zrotation Xrotation Yrotation
						JOINT LeftForeArm
						{
							OFFSET	 0.000000	 0.000000	 0.364576
							CHANNELS 3 Zrotation Xrotation Yrotation
							JOINT LeftHand
							{
								OFFSET	 0.000000	 0.000000	 0.360812
								CHANNELS 3 Zrotation Xrotation Yrotation
								JOINT LeftHandIndex1
								{
									OFFSET	 0.000000	 0.000000	 0.086006
									CHANNELS 3 Zrotation Xrotation Yrotation
									JOINT LeftHandIndex2
									{
										OFFSET	 0.000000	 0.000000	 0.047237
										CHANNELS 3 Zrotation Xrotation Yrotation
										JOINT LeftHandIndex3
										{
											OFFSET	-0.004284	-0.000551	 0.038165
											CHANNELS 3 Zrotation Xrotation Yrotation
											End Site
											{
												OFFSET	-0.004284	-0.000551	 0.038165
											}
										}
									}
								}
							}
						}
					}
				}
				JOINT Neck
				{
					OFFSET	 0.000000	 0.000000	 0.176489
					CHANNELS 3 Zrotation Xrotation Yrotation
					JOINT Head
					{
						OFFSET	 0.000000	-0.001747	 0.077940
						CHANNELS 3 Zrotation Xrotation Yrotation
						End Site
						{
							OFFSET	 0.000000	-0.001747	 0.077940
						}
					}
				}
				JOINT RightShoulder
				{
					OFFSET	-0.080363	 0.000306	 0.159706
					CHANNELS 3 Zrotation Xrotation Yrotation
					JOINT RightArm
					{
						OFFSET	 0.000000	 0.000000	 0.164196
						CHANNELS 3 Zrotation Xrotation Yrotation
						JOINT RightForeArm
						{
							OFFSET	 0.000000	 0.000000	 0.365611
							CHANNELS 3 Zrotation Xrotation Yrotation
							JOINT RightHand
							{
								OFFSET	 0.000000	 0.000000	 0.360648
								CHANNELS 3 Zrotation Xrotation Yrotation
								JOINT RightHandIndex1
								{
									OFFSET	 0.000000	 0.000000	 0.069977
									CHANNELS 3 Zrotation Xrotation Yrotation
									JOINT RightHandIndex2
									{
										OFFSET	 0.000000	 0.000000	 0.052305
										CHANNELS 3 Zrotation Xrotation Yrotation
										JOINT RightHandIndex3
										{
											OFFSET	 0.009002	-0.000782	 0.042196
											CHANNELS 3 Zrotation Xrotation Yrotation
											End Site
											{
												OFFSET	 0.009002	-0.000782	 0.042196
											}
										}
									}
								}
							}
						}
					}
				}
			}
		}
	}
}
MOTION
Frames:    11
Frame Time: 0.03333334
-0.639563	-0.129252	 1.282402	-159.380200	 9.752645	 8.914265	 15.216420	-18.266560	 163.523600	-9.037866	-29.930030	-3.548976	-52.032020	 73.298770	 51.199310	-2.385833	 28.452760	 0.000004	-4.877397	-51.530860	 175.451000	-28.841580	-56.315410	-15.078800	 20.185390	 26.657910	-33.764580	 2.384659	 28.388700	-0.000001	 62.520670	-20.962100	-13.634650	 45.079780	 27.816420	 0.470112	-4.044543	-4.536681	-5.413234	-91.776210	 78.527380	-180.000000	 8.466515	 11.556270	-50.160470	-10.843570	 0.435375	-5.727001	-2.648483	 1.764367	-3.870377	-4.131196	 21.524690	 0.986298	-5.167839	 0.733520	 3.519257	-1.378229	 35.397820	-2.634230	-14.140170	 16.457960	-7.417946	-24.996590	 3.782158	 5.342045	 89.782140	 78.203890	 179.999900	 6.456549	 58.193510	-12.410740	 1.274481	-4.179800	 27.086670	 103.380200	-20.881220	-4.935531	 5.715225	 19.176060	-3.692089	 5.027514	 0.245388	-9.378011	-2.350882	 35.473990	 5.254307
-0.639755	-0.129027	 1.282444	-159.746300	 9.972034	 9.471425	 15.022690	-18.630790	 163.005800	-8.904987	-30.083410	-3.498053	-50.475560	 73.238640	 49.378790	-2.385833	 28.452760	 0.000004	-2.965872	-51.672930	 175.628300	-26.939880	-56.416680	-13.468930	 26.070550	 32.077580	-35.653450	 2.384659	 28.388700	-0.000001	 62.450020	-21.462160	-14.271780	 45.220660	 27.802370	 0.787478	-3.999813	-4.295726	-5.695670	-91.776160	 78.527450	 180.000000	 8.603941	 11.517970	-50.241860	-10.678530	 0.434010	-5.726542	-2.265133	 2.056277	-3.930904	-4.131196	 21.524690	 0.986298	-5.167839	 0.733520	 3.519257	-1.378229	 35.397820	-2.634230	-14.002600	 16.433030	-7.832957	-25.071120	 3.633571	 5.363296	 89.782110	 78.203900	 180.000000	 6.631366	 58.205770	-12.942000	 1.144181	-4.428974	 27.900610	 102.834000	-21.842820	-4.900735	 5.715225	 19.176060	-3.692089	 5.027514	 0.245388	-9.378011	-2.350882	 35.473990	 5.254307
-0.639219	-0.128763	 1.282802	-159.935300	 9.865171	 9.551529	 15.522920	-18.576570	 162.923700	-8.771434	-29.991670	-3.420919	-52.278800	 74.301600	 50.755040	-2.385833	 28.452760	 0.000004	-2.255935	-51.506910	 175.855300	-24.666150	-56.611050	-11.560750	 31.484970	 36.648730	-37.830680	 2.384659	 28.388700	-0.000001	 62.204880	-22.220710	-14.897320	 45.602090	 29.316500	 0.098353	-4.033949	-4.917171	-5.465034	-91.776210	 78.527420	-180.000000	 8.484685	 11.642150	-50.194820	-10.375020	 0.430911	-5.722994	-1.958537	 2.255897	-4.006887	-4.131196	 21.524690	 0.986298	-5.167839	 0.733520	 3.519257	-1.378229	 35.397820	-2.634230	-13.983020	 16.346840	-7.872599	-25.094510	 3.559665	 5.217192	 89.782090	 78.203900	-180.000000	 6.729984	 58.252720	-12.892690	 0.661733	-4.576468	 27.641030	 102.763800	-20.554630	-3.953772	 5.715225	 19.176060	-3.692089	 5.027514	 0.245388	-9.378011	-2.350882	 35.473990	 5.254307
-0.638041	-0.128245	 1.283335	-160.063800	 9.617997	 9.403461	 16.424700	-18.321220	 163.040900	-8.592079	-29.747500	-3.305775	-56.566550	 75.960290	 54.511860	-2.385833	 28.452760	 0.000004	-2.460328	-51.170910	 175.959300	-21.939710	-56.788040	-9.270367	 37.292450	 41.060680	-40.643280	 2.384659	 28.388700	-0.000001	 61.875920	-23.089960	-15.473510	 46.159810	 31.457580	-1.115639	-4.086987	-5.897541	-4.995908	-91.776190	 78.527400	-180.000000	 8.212907	 11.884390	-50.082230	-9.968094	 0.426614	-5.713250	-1.659640	 2.433010	-4.094917	-4.131196	 21.524690	 0.986298	-5.167839	 0.733520	 3.519257	-1.378229	 35.397820	-2.634230	-14.017980	 16.222380	-7.735400	-25.096130	 3.514237	 4.975009	 89.782150	 78.203870	 179.999900	 6.876366	 58.318980	-12.614650	-0.049204	-4.677037	 26.840130	 102.867500	-18.085440	-2.443456	 5.715225	 19.176060	-3.692089	 5.027514	 0.245388	-9.378011	-2.350882	 35.473990	 5.254307
-0.637169	-0.127461	 1.283451	-160.670700	 9.797812	 9.573024	 17.442120	-18.651560	 163.011400	-8.229077	-29.701680	-3.119545	-59.438420	 76.627200	 56.872860	-2.385833	 28.452760	 0.000004	-3.381658	-51.337720	 175.264700	-20.303220	-56.675830	-7.878120	 39.220270	 43.295540	-40.830330	 2.384659	 28.388700	-0.000001	 62.361330	-23.171790	-15.706990	 46.065560	 31.445870	-0.475791	-4.080103	-5.732665	-5.208442	-91.776160	 78.527380	 180.000000	 8.099449	 11.883490	-50.111520	-9.592677	 0.422155	-5.700631	-1.400537	 2.583456	-4.177080	-4.131196	 21.524690	 0.986298	-5.167839	 0.733520	 3.519257	-1.378229	 35.397820	-2.634230	-14.019010	 16.331910	-7.701943	-25.067910	 3.397239	 4.845533	 89.782140	 78.203900	 179.999900	 6.964732	 58.464450	-12.594060	-0.678878	-4.916364	 26.735260	 101.971600	-17.968110	-1.778641	 5.715225	 19.176060	-3.692089	 5.027514	 0.245388	-9.378011	-2.350882	 35.473990	 5.254307
-0.636052	-0.126274	 1.283412	-161.577800	 10.150570	 9.909627	 18.673000	-19.225800	 162.904800	-7.673318	-29.700280	-2.841769	-62.326550	 77.082970	 59.081270	-2.385833	 28.452760	 0.000004	-4.590256	-51.653680	 174.185800	-18.794950	-56.398870	-6.588275	 39.960250	 45.281340	-39.950390	 2.384659	 28.388700	-0.000001	 63.258210	-22.938820	-15.866570	 45.707980	 30.606890	 0.998522	-4.043097	-5.098077	-5.717927	-91.776150	 78.527380	 180.000000	 8.025780	 11.789850	-50.206380	-9.155403	 0.416405	-5.684626	-1.112709	 2.753107	-4.269978	-4.131196	 21.524690	 0.986298	-5.167839	 0.733520	 3.519257	-1.378229	 35.397820	-2.634230	-14.007290	 16.551790	-7.702047	-25.023100	 3.230632	 4.735249	 89.782040	 78.203870	-180.000000	 7.005570	 58.674700	-12.646250	-1.390207	-5.275560	 26.920710	 100.525800	-18.756090	-1.387162	 5.715225	 19.176060	-3.692089	 5.027514	 0.245388	-9.378011	-2.350882	 35.473990	 5.254307
-0.634223	-0.124623	 1.283441	-162.056300	 10.492000	 9.711377	 19.468770	-19.400930	 163.268200	-6.942480	-29.492600	-2.461554	-69.473340	 78.742420	 65.151310	-2.385833	 28.452760	 0.000004	-3.800425	-51.916690	 174.756100	-18.070640	-56.183160	-5.966915	 42.217890	 46.814360	-41.096040	 2.384659	 28.388700	-0.000001	 63.843560	-23.094470	-15.417140	 45.612030	 30.574650	 1.487725	-4.007460	-4.959135	-6.098177	-91.776170	 78.527380	 180.000000	 7.924555	 11.783700	-50.276880	-8.815272	 0.410720	-5.665814	-0.862789	 2.910445	-4.353353	-4.131196	 21.524690	 0.986298	-5.167839	 0.733520	 3.519257	-1.378229	 35.397820	-2.634230	-13.933410	 16.785410	-7.765252	-24.971140	 3.181745	 4.956885	 89.782110	 78.203850	 180.000000	 6.729533	 58.724770	-12.102000	-2.016898	-5.431583	 26.526580	 99.438050	-18.562750	-0.803436	 5.715225	 19.176060	-3.692089	 5.027514	 0.245388	-9.378011	-2.350882	 35.473990	 5.254307
-0.631643	-0.122391	 1.283503	-162.372500	 10.874560	 9.236391	 20.171540	-19.382120	 163.881000	-6.055364	-29.121350	-1.999498	-82.813110	 80.866340	 77.188170	-2.385833	 28.452760	 0.000004	-1.977320	-52.139940	 176.202500	-17.640950	-55.952030	-5.593169	 45.571760	 48.181280	-43.431800	 2.384659	 28.388700	-0.000001	 64.346420	-23.466490	-14.614780	 45.632370	 30.935560	 1.517929	-3.972317	-5.046089	-6.436181	-91.776210	 78.527400	-180.000000	 7.793136	 11.823860	-50.347070	-8.482472	 0.403973	-5.642943	-0.607353	 3.075065	-4.440691	-4.131196	 21.524690	 0.986298	-5.167839	 0.733520	 3.519257	-1.378229	 35.397820	-2.634230	-13.821450	 17.049450	-7.866195	-24.911050	 3.185801	 5.360355	 89.782170	 78.203900	 179.999900	 6.291360	 58.703830	-11.212100	-2.674296	-5.490838	 25.802520	 98.417850	-17.911590	-0.015045	 5.715225	 19.176060	-3.692089	 5.027514	 0.245388	-9.378011	-2.350882	 35.473990	 5.254307
-0.628599	-0.120120	 1.283633	-162.133500	 11.019110	 8.265423	 20.487720	-18.806120	 164.810000	-5.356683	-28.530690	-1.627590	-104.069200	 82.669360	 97.459290	-2.385833	 28.452760	 0.000004	 1.054153	-51.968610	 178.904300	-17.533700	-55.856930	-5.497775	 50.162980	 48.876210	-47.370500	 2.384659	 28.388700	-0.000001	 64.464700	-23.950840	-13.344150	 45.873460	 32.005080	 0.379704	-3.937897	-5.691609	-6.340722	-91.776190	 78.527420	-180.000000	 7.659667	 11.914590	-50.345950	-8.249231	 0.398367	-5.616597	-0.399233	 3.214706	-4.513009	-4.131196	 21.524690	 0.986298	-5.167839	 0.733520	 3.519257	-1.378229	 35.397820	-2.634230	-13.649960	 17.137380	-8.009582	-24.876370	 3.348602	 6.004288	 89.782120	 78.203890	 180.000000	 5.746061	 58.561830	-9.876560	-3.116532	-5.213051	 24.340560	 98.046610	-16.495430	 1.401340	 5.715225	 19.176060	-3.692089	 5.027514	 0.245388	-9.378011	-2.350882	 35.473990	 5.254307
-0.624787	-0.117332	 1.283781	-161.642300	 11.112310	 7.001487	 20.798720	-17.969600	 165.948200	-4.649248	-27.719690	-1.255303	-136.806700	 83.143450	 129.366200	-2.385833	 28.452760	 0.000004	 4.877601	-51.460320	-177.657300	-17.515510	-55.760500	-5.476429	 55.940480	 49.171850	-52.408990	 2.384659	 28.388700	-0.000001	 64.529490	-24.429240	-11.658890	 46.204970	 33.217290	-1.205129	-3.887616	-6.499748	-6.135930	-91.776200	 78.527380	-180.000000	 7.493765	 12.055050	-50.318900	-8.016416	 0.391238	-5.588567	-0.182376	 3.358679	-4.588895	-4.131196	 21.524690	 0.986298	-5.167839	 0.733520	 3.519257	-1.378229	 35.397820	-2.634230	-13.436920	 17.175540	-8.185363	-24.849120	 3.588651	 6.808492	 89.782060	 78.203890	-180.000000	 5.151953	 58.337760	-8.166254	-3.546786	-4.722691	 22.279320	 97.832220	-14.597220	 3.245680	 5.715225	 19.176060	-3.692089	 5.027514	 0.245388	-9.378011	-2.350882	 35.473990	 5.254307
-0.621348	-0.114962	 1.283470	-161.604900	 10.776870	 6.537329	 20.320520	-16.876510	 166.066500	-3.971427	-27.096080	-0.920057	-138.494200	 82.773900	 130.505200	-2.385833	 28.452760	 0.000004	 6.295736	-50.593640	-176.462100	-17.225670	-55.450280	-5.220165	 56.702820	 49.844540	-52.351220	 2.384659	 28.388700	-0.000001	 65.088110	-23.339500	-10.710220	 45.722930	 32.308620	-1.344444	-3.707926	-6.254421	-5.741271	-91.776200	 78.527380	-180.000000	 7.817547	 11.436570	-50.475760	-7.833064	 0.384288	-5.552972	 0.002041	 3.487191	-4.658552	-4.131196	 21.524690	 0.986298	-5.167839	 0.733520	 3.519257	-1.378229	 35.397820	-2.634230	-13.212540	 17.135890	-8.517335	-24.867210	 3.803243	 7.588587	 89.782110	 78.203890	 180.000000	 4.092634	 58.434950	-6.861648	-3.505930	-4.580711	 21.824130	 97.154920	-16.337100	 4.963940	 5.715225	 19.176060	-3.692089	 5.027514	 0.245388	-9.378011	-2.350882	 35.473990	 5.254307
